<?xml version="1.0" encoding="utf-8"?>
<!-- Generator: Adobe Illustrator 17.0.0, SVG Export Plug-In . SVG Version: 6.00 Build 0)  -->
<!DOCTYPE svg PUBLIC "-//W3C//DTD SVG 1.1//EN" "http://www.w3.org/Graphics/SVG/1.1/DTD/svg11.dtd">
<svg version="1.1" xmlns="http://www.w3.org/2000/svg" xmlns:xlink="http://www.w3.org/1999/xlink" x="0px" y="0px" width="90px"
	 height="60px" viewBox="0 0 90 60" enable-background="new 0 0 90 60" xml:space="preserve">
<g id="Background_xA0_Image_1_">
	<rect fill="#495159" width="90" height="60"/>
	<rect x="7" y="7" fill="#FFFFFF" width="76" height="46"/>
</g>
<g id="Layer_2">
	<g>
		<path fill="#495159" d="M15.447,15.811h4.725c1.065,0,1.878,0.082,2.437,0.245c0.751,0.221,1.394,0.614,1.93,1.179
			c0.536,0.565,0.943,1.256,1.223,2.074c0.279,0.818,0.419,1.826,0.419,3.026c0,1.054-0.131,1.962-0.393,2.725
			c-0.32,0.931-0.777,1.686-1.371,2.262c-0.449,0.437-1.054,0.777-1.816,1.022c-0.571,0.18-1.333,0.271-2.288,0.271h-4.864V15.811z
			 M18.032,17.977v8.48h1.93c0.722,0,1.243-0.041,1.563-0.122c0.419-0.105,0.767-0.283,1.044-0.533s0.502-0.662,0.677-1.236
			c0.175-0.573,0.262-1.355,0.262-2.345c0-0.99-0.087-1.75-0.262-2.279s-0.419-0.943-0.734-1.24
			c-0.314-0.297-0.713-0.498-1.196-0.603c-0.361-0.082-1.069-0.122-2.122-0.122H18.032z"/>
		<path fill="#495159" d="M33.726,25.662l2.445,0.41c-0.314,0.896-0.811,1.58-1.489,2.048c-0.678,0.469-1.527,0.704-2.546,0.704
			c-1.613,0-2.806-0.528-3.581-1.581c-0.611-0.845-0.917-1.91-0.917-3.197c0-1.537,0.402-2.741,1.205-3.611
			c0.803-0.87,1.82-1.306,3.048-1.306c1.38,0,2.468,0.455,3.266,1.367c0.798,0.911,1.179,2.307,1.144,4.188h-6.148
			c0.017,0.728,0.215,1.294,0.594,1.699c0.379,0.405,0.85,0.608,1.415,0.608c0.384,0,0.707-0.105,0.969-0.314
			C33.394,26.465,33.591,26.128,33.726,25.662z M33.865,23.182c-0.017-0.711-0.201-1.25-0.55-1.62s-0.774-0.555-1.275-0.555
			c-0.536,0-0.978,0.195-1.327,0.585c-0.349,0.39-0.521,0.92-0.515,1.589H33.865z"/>
		<path fill="#495159" d="M37.228,19.339h1.362V18.64c0-0.78,0.083-1.362,0.249-1.747s0.472-0.697,0.917-0.939
			c0.445-0.241,1.009-0.362,1.69-0.362c0.699,0,1.383,0.105,2.052,0.314l-0.332,1.712c-0.39-0.093-0.765-0.14-1.127-0.14
			c-0.355,0-0.61,0.083-0.764,0.249c-0.154,0.166-0.231,0.485-0.231,0.956v0.655h1.834v1.93h-1.834v7.345H38.59v-7.345h-1.362
			V19.339z"/>
		<path fill="#495159" d="M46.092,22.169l-2.227-0.402c0.25-0.896,0.681-1.56,1.292-1.991c0.611-0.431,1.52-0.646,2.725-0.646
			c1.095,0,1.91,0.13,2.445,0.389c0.535,0.259,0.913,0.588,1.13,0.987c0.22,0.399,0.328,1.131,0.328,2.196l-0.026,2.864
			c0,0.815,0.04,1.417,0.117,1.803c0.08,0.388,0.226,0.802,0.442,1.245h-2.428c-0.064-0.163-0.142-0.405-0.236-0.725
			c-0.041-0.146-0.07-0.242-0.087-0.288c-0.419,0.407-0.868,0.712-1.345,0.917c-0.478,0.203-0.987,0.306-1.528,0.306
			c-0.955,0-1.707-0.259-2.258-0.777c-0.55-0.519-0.825-1.174-0.825-1.966c0-0.524,0.125-0.991,0.376-1.402s0.601-0.725,1.052-0.943
			c0.451-0.218,1.102-0.409,1.952-0.572c1.147-0.215,1.941-0.416,2.384-0.603v-0.245c0-0.472-0.116-0.808-0.349-1.009
			c-0.233-0.201-0.672-0.301-1.319-0.301c-0.437,0-0.777,0.086-1.022,0.258C46.441,21.436,46.243,21.738,46.092,22.169z
			 M49.375,24.16c-0.314,0.105-0.812,0.23-1.493,0.376c-0.681,0.145-1.127,0.288-1.336,0.428c-0.32,0.227-0.48,0.515-0.48,0.865
			c0,0.344,0.128,0.641,0.384,0.891c0.256,0.25,0.581,0.376,0.978,0.376c0.442,0,0.865-0.146,1.266-0.437
			c0.297-0.222,0.493-0.493,0.585-0.813c0.065-0.21,0.096-0.608,0.096-1.196V24.16z"/>
		<path fill="#495159" d="M60.309,28.614v-1.389c-0.338,0.494-0.781,0.885-1.332,1.17c-0.549,0.284-1.13,0.428-1.742,0.428
			c-0.623,0-1.181-0.137-1.677-0.41c-0.495-0.274-0.853-0.659-1.074-1.153c-0.221-0.495-0.332-1.18-0.332-2.053v-5.869h2.454v4.262
			c0,1.304,0.045,2.103,0.135,2.397c0.091,0.294,0.256,0.528,0.494,0.699c0.238,0.172,0.541,0.258,0.908,0.258
			c0.419,0,0.795-0.115,1.127-0.346c0.332-0.23,0.559-0.515,0.681-0.856c0.122-0.341,0.183-1.175,0.183-2.502v-3.912h2.454v9.275
			H60.309z"/>
		<path fill="#495159" d="M65.13,28.614V15.811h2.454v12.803H65.13z"/>
		<path fill="#495159" d="M74.352,19.339v1.956h-1.677v3.738c0,0.757,0.016,1.198,0.047,1.323c0.032,0.126,0.105,0.228,0.22,0.311
			c0.112,0.081,0.251,0.122,0.414,0.122c0.227,0,0.556-0.079,0.987-0.236l0.21,1.904c-0.57,0.245-1.216,0.367-1.939,0.367
			c-0.443,0-0.841-0.075-1.196-0.223s-0.616-0.341-0.781-0.576c-0.167-0.236-0.282-0.554-0.346-0.956
			c-0.052-0.286-0.079-0.862-0.079-1.73v-4.043h-1.127v-1.956h1.127v-1.843l2.463-1.432v3.275H74.352z"/>
	</g>
	<g>
		<path fill="#495159" d="M17.978,41.193l1.969-0.191c0.119,0.661,0.359,1.146,0.721,1.456s0.851,0.465,1.466,0.465
			c0.652,0,1.143-0.138,1.473-0.414c0.331-0.275,0.496-0.598,0.496-0.967c0-0.237-0.069-0.438-0.208-0.605
			c-0.139-0.166-0.382-0.311-0.728-0.434c-0.237-0.082-0.777-0.228-1.62-0.438c-1.084-0.269-1.846-0.6-2.283-0.991
			c-0.615-0.552-0.923-1.224-0.923-2.017c0-0.51,0.145-0.987,0.434-1.432s0.707-0.783,1.251-1.016s1.202-0.349,1.972-0.349
			c1.258,0,2.205,0.276,2.84,0.827c0.636,0.552,0.97,1.288,1.001,2.208l-2.023,0.089c-0.086-0.515-0.272-0.885-0.557-1.11
			s-0.712-0.339-1.282-0.339c-0.588,0-1.048,0.121-1.381,0.362c-0.214,0.155-0.321,0.362-0.321,0.622c0,0.237,0.1,0.44,0.301,0.608
			c0.255,0.215,0.875,0.438,1.859,0.67s1.712,0.473,2.184,0.722c0.472,0.248,0.841,0.588,1.107,1.018
			c0.267,0.432,0.4,0.963,0.4,1.597c0,0.574-0.16,1.112-0.479,1.613s-0.77,0.874-1.354,1.118c-0.583,0.243-1.31,0.365-2.181,0.365
			c-1.267,0-2.24-0.293-2.919-0.879C18.515,43.168,18.11,42.314,17.978,41.193z"/>
		<path fill="#495159" d="M32.019,42.144l1.914,0.321c-0.246,0.702-0.635,1.236-1.166,1.603c-0.531,0.367-1.195,0.551-1.993,0.551
			c-1.262,0-2.197-0.412-2.803-1.237c-0.479-0.661-0.718-1.495-0.718-2.502c0-1.203,0.314-2.146,0.943-2.826
			c0.629-0.682,1.424-1.022,2.386-1.022c1.08,0,1.932,0.356,2.557,1.07c0.625,0.713,0.923,1.806,0.896,3.277h-4.813
			c0.014,0.569,0.168,1.013,0.465,1.33c0.296,0.316,0.666,0.475,1.107,0.475c0.301,0,0.554-0.082,0.759-0.246
			S31.914,42.508,32.019,42.144z M32.128,40.202c-0.014-0.556-0.157-0.979-0.431-1.268c-0.273-0.29-0.606-0.435-0.998-0.435
			c-0.419,0-0.766,0.152-1.039,0.458s-0.408,0.72-0.403,1.244H32.128z"/>
		<path fill="#495159" d="M38.93,37.194v1.531h-1.313v2.926c0,0.593,0.013,0.938,0.037,1.035c0.025,0.099,0.082,0.18,0.172,0.243
			c0.088,0.063,0.196,0.096,0.324,0.096c0.178,0,0.436-0.062,0.772-0.185l0.164,1.49c-0.446,0.191-0.952,0.287-1.518,0.287
			c-0.347,0-0.658-0.059-0.937-0.174c-0.278-0.117-0.482-0.268-0.611-0.451c-0.131-0.186-0.221-0.435-0.271-0.749
			c-0.041-0.224-0.062-0.675-0.062-1.354v-3.165h-0.882v-1.531h0.882v-1.442l1.928-1.121v2.563H38.93z"/>
		<path fill="#495159" d="M43.592,37.194v1.531h-1.313v2.926c0,0.593,0.013,0.938,0.037,1.035c0.025,0.099,0.082,0.18,0.172,0.243
			c0.088,0.063,0.196,0.096,0.324,0.096c0.178,0,0.436-0.062,0.772-0.185l0.164,1.49c-0.446,0.191-0.952,0.287-1.518,0.287
			c-0.347,0-0.658-0.059-0.937-0.174c-0.278-0.117-0.482-0.268-0.611-0.451c-0.131-0.186-0.221-0.435-0.271-0.749
			c-0.041-0.224-0.062-0.675-0.062-1.354v-3.165H39.47v-1.531h0.882v-1.442l1.928-1.121v2.563H43.592z"/>
		<path fill="#495159" d="M44.925,36.21v-1.777h1.921v1.777H44.925z M44.925,44.454v-7.26h1.921v7.26H44.925z"/>
		<path fill="#495159" d="M55.418,44.454h-1.921v-3.705c0-0.784-0.041-1.291-0.123-1.521c-0.082-0.229-0.215-0.408-0.4-0.536
			c-0.184-0.128-0.406-0.191-0.666-0.191c-0.333,0-0.631,0.091-0.896,0.273s-0.445,0.424-0.544,0.725
			c-0.098,0.301-0.146,0.856-0.146,1.668v3.288h-1.921v-7.26h1.784v1.066c0.634-0.82,1.431-1.23,2.393-1.23
			c0.424,0,0.812,0.076,1.162,0.229c0.351,0.152,0.616,0.348,0.797,0.584c0.18,0.237,0.305,0.506,0.375,0.807
			c0.071,0.301,0.106,0.731,0.106,1.292V44.454z"/>
		<path fill="#495159" d="M57.188,44.933l2.194,0.267c0.036,0.255,0.121,0.431,0.253,0.526c0.183,0.137,0.47,0.205,0.861,0.205
			c0.501,0,0.877-0.075,1.128-0.226c0.169-0.101,0.296-0.262,0.383-0.485c0.06-0.159,0.089-0.453,0.089-0.882v-1.06
			c-0.574,0.784-1.299,1.176-2.174,1.176c-0.976,0-1.748-0.412-2.317-1.237c-0.446-0.651-0.67-1.463-0.67-2.434
			c0-1.217,0.293-2.146,0.879-2.789c0.585-0.643,1.313-0.964,2.184-0.964c0.897,0,1.639,0.395,2.222,1.183v-1.019h1.798v6.515
			c0,0.856-0.07,1.497-0.212,1.921s-0.34,0.757-0.595,0.998s-0.596,0.431-1.021,0.567c-0.427,0.137-0.966,0.205-1.617,0.205
			c-1.23,0-2.104-0.211-2.618-0.632c-0.515-0.422-0.772-0.956-0.772-1.604C57.182,45.102,57.184,45.023,57.188,44.933z
			 M58.904,40.674c0,0.771,0.149,1.334,0.447,1.692c0.299,0.357,0.667,0.536,1.104,0.536c0.47,0,0.866-0.184,1.189-0.55
			c0.323-0.367,0.485-0.911,0.485-1.631c0-0.752-0.155-1.311-0.465-1.675S60.964,38.5,60.49,38.5c-0.46,0-0.84,0.179-1.139,0.536
			C59.054,39.395,58.904,39.94,58.904,40.674z"/>
		<path fill="#495159" d="M65.241,42.383l1.928-0.294c0.082,0.374,0.248,0.657,0.499,0.852c0.251,0.193,0.602,0.29,1.053,0.29
			c0.497,0,0.87-0.091,1.121-0.273c0.169-0.128,0.253-0.299,0.253-0.513c0-0.146-0.046-0.267-0.137-0.362
			c-0.096-0.091-0.31-0.176-0.643-0.253c-1.55-0.342-2.531-0.654-2.946-0.937c-0.574-0.392-0.861-0.937-0.861-1.634
			c0-0.629,0.248-1.158,0.745-1.586s1.267-0.643,2.311-0.643c0.993,0,1.731,0.162,2.215,0.485c0.483,0.324,0.815,0.802,0.998,1.436
			l-1.812,0.335c-0.077-0.282-0.225-0.499-0.44-0.649c-0.217-0.15-0.525-0.226-0.927-0.226c-0.506,0-0.868,0.07-1.087,0.212
			c-0.146,0.101-0.219,0.23-0.219,0.39c0,0.137,0.063,0.253,0.191,0.349c0.173,0.128,0.771,0.308,1.795,0.54
			c1.022,0.232,1.737,0.518,2.143,0.854c0.401,0.342,0.602,0.818,0.602,1.429c0,0.665-0.278,1.237-0.834,1.716
			s-1.379,0.718-2.468,0.718c-0.989,0-1.771-0.2-2.349-0.602C65.796,43.615,65.419,43.071,65.241,42.383z"/>
	</g>
</g>
</svg>
