<?xml version="1.0" encoding="utf-8"?>
<!-- Generator: Adobe Illustrator 17.0.0, SVG Export Plug-In . SVG Version: 6.00 Build 0)  -->
<!DOCTYPE svg PUBLIC "-//W3C//DTD SVG 1.1//EN" "http://www.w3.org/Graphics/SVG/1.1/DTD/svg11.dtd">
<svg version="1.1" xmlns="http://www.w3.org/2000/svg" xmlns:xlink="http://www.w3.org/1999/xlink" x="0px" y="0px" width="90px"
	 height="60px" viewBox="0 0 90 60" enable-background="new 0 0 90 60" xml:space="preserve">
<symbol  id="Grime_Vector_Pack_09" viewBox="-71.028 -83.195 142.056 166.392">
	<path fill-rule="evenodd" clip-rule="evenodd" d="M14.722,71.754c5.101,1.54,0.416,10.506-2.46,11.244
		c-2.5,0.643-4.732-0.3-5.27-2.459C5.764,75.616,10.191,72.789,14.722,71.754z M64.625,74.565c-2.61,1.004-4.559-0.257-4.566-2.107
		C60.038,68.347,67.704,69.846,64.625,74.565z M7.342,73.159c1.252-2.028,1.637-4.921,3.866-5.973
		C10.393,69.651,9.287,71.825,7.342,73.159z M-53.457,54.187c4.521,5.344-7.054,5.457-2.459,0H-53.457z M70.601,54.889
		c-1.276,0.601-3.375,0.48-3.865-0.703C66.073,49.927,72.749,51.143,70.601,54.889z M5.936,48.213
		c-1.31-2.439-1.674-5.821-2.458-8.784c2.063,1.918,2.188,5.775,3.513,8.432C6.541,47.88,6.504,48.313,5.936,48.213z
		 M-35.533,21.509c-0.459,0.495-1.861,1.264-2.108,0C-37.026,21.606-35.888,20.521-35.533,21.509z M65.328,16.589
		c-1.936,0.18-2.936-0.576-2.811-2.459C64.126,14.279,65.267,14.897,65.328,16.589z M-56.268,15.185c0.757-2.055,2.624-3,4.92-3.514
		C-52.42,13.411-54.23,14.411-56.268,15.185z M41.432,0.076c-2.589,0.426-6.784-0.438-8.786-1.757
		C35.577-0.812,39.598-0.967,41.432,0.076z M39.675-34.709c1.267-1.426,3.146-2.24,5.623-2.459
		C44.431-35.338,41.402-35.676,39.675-34.709z M-61.891-36.116c-0.705-0.879,0.288-2.312,1.055-2.81
		C-60.877-37.678-60.582-36.094-61.891-36.116z M54.084-47.007c-3.132,0.262-4.79-1.592-4.218-3.864
		C51.062-55.627,59.464-50.762,54.084-47.007z M-51.348-47.357c0.17-1.108-1.078-0.797-0.703-2.108
		C-50.931-49.852-50.229-46.97-51.348-47.357z M35.457-47.71v-1.052c0.801-0.098,1.319,0.083,1.406,0.702
		C36.389-47.951,36.19-47.562,35.457-47.71z M-33.424-51.924c-0.056,0.412,0.06,0.996-0.352,1.053
		c-1.557-3.479-5.365-4.709-5.975-9.136C-36.968-57.987-35.62-54.532-33.424-51.924z M39.322-56.493
		c1.131-0.566,2.33-0.291,3.164,0.352v1.756C41.008-53.28,38.692-53.665,39.322-56.493z M63.922-61.412
		c0.517-0.774,0.933-1.647,2.46-1.406c0.742,0.547,1.275,1.303,1.056,2.813C66.065-58.922,64.015-59.36,63.922-61.412z
		 M24.914-63.169c-0.163-1.1,0.305-1.568,1.404-1.406c0.297,0.408,0.465,0.943,0.353,1.758
		C25.678-62.527,25.761-63.312,24.914-63.169z M-18.313-74.764c-0.338-1.045-1.426-1.838-1.757-2.811
		c-0.686-2.021-0.562-4.013-1.055-5.62c3.705,4.493,4.304,12.095,5.975,18.619c-0.664-0.078-0.774,0.396-1.405,0.354
		C-18.768-66.271-17.219-71.383-18.313-74.764z M-38.696-76.17c1.449-1.127,2.596-2.555,3.865-3.865
		c3.538-0.477,5.541-0.807,8.435,0.352c0.611,2.902,3.31,3.719,4.92,5.623c-2.08,2.137-3.15,5.282-4.92,7.729
		C-33.476-63.355-40.777-67.902-38.696-76.17z M5.585-74.413c1.029,0.092,1.08-0.795,2.108-0.703c0.923,0.6,1.763,1.283,1.406,3.162
		C7.441-70.017,4.007-72.041,5.585-74.413z M-20.07-74.413c-0.227,0.885,1.61,2.41,0,2.459
		C-19.607-73.041-21.112-73.901-20.07-74.413z M-45.374,8.509c-1.739,1.071-3.303,2.319-5.271,3.163
		C-49.785,10.131-45.611,8.347-45.374,8.509z M-60.485-22.412c0.017,1.071-0.742,1.367-1.055,2.109
		c-1.312,0.14-2.062-0.28-2.107-1.405c0.063-0.992,1.67-0.438,1.405-1.758C-61.355-22.721-62.552-22.554-60.485-22.412z
		 M27.373-29.086c0.428,0.107,1.212-1.016,0.352-1.055c-1.338,0.514-5.541,1.188-3.162,3.161c1.285,0.213,1.634-2.319,2.81-1.052
		c-0.902,0.267-1.488,0.854-1.756,1.757c0.887,0.867,2.684,0.83,4.217,1.053c-0.203,5.789,9.433,2.291,10.191,6.325
		c0.926,4.924-10.753,3.863-6.677,11.595c-0.506,0.196-0.857,0.549-1.055,1.054c-2.638,0.412-3.514-0.938-5.975-0.702
		c-0.208,1.121,0.659,1.087,0,1.757c-1.392-0.522-2.027-0.951-2.459,0.702c0.55,1.324,3.276,0.472,3.513,2.109
		c-4.264-0.913-9.028-1.333-8.433,4.216c5.283,2.738,7.975,8.077,12.651,10.893c2.31,1.39,4.82,2.874,4.92,5.973
		c-3.537,4.634-6.488-2.246-11.245-1.757c-4.152-1.82-5.882-6.066-10.191-7.73c0.582,0.624,0.51,2.574-0.703,2.459
		c-1.739-0.266,0.179-2.806-0.352-2.811c-2.05,0.215-0.861,2.545-1.404,3.865c-0.773,1.875-2.698,2.965-1.406,5.973
		c0.816,0.472,1.995,0.582,2.811,1.053c-0.451,2.01,2.023,5.271-1.054,5.622c-0.905-0.499-0.526-2.283-1.757-2.458
		c-2.126,5.003-0.378,9.393-1.405,14.758c-4.961,4.049-4.617-4.202-7.38-5.624c0.002,1.803,0.45,1.591,0.702,3.514
		c-2.284-0.645-0.089-5.766-2.812-5.973c-0.955,2.324-1.203,5.356-4.218,5.621c-1.073-2.898,2.04-4.717,1.759-7.028
		c3.81,1.66-0.607-3.992-3.515-3.161c-0.959,0.331-0.668,1.91-2.461,1.406c-0.299-2.697,1.112-7.558-3.163-6.325
		c-7.464,7.528-13.714,16.27-16.167,28.811c-3.459,2.345-2.249,16.198-7.731,16.867c-4.423,0.538-3.559-3.531-2.811-5.623
		c1.732-4.845,4.059-12.904,5.624-16.513c4.076-9.402,9.543-17.131,7.38-27.057c-2.43-5.181-8.687-1.659-12.3,0.353
		c-2.992,1.667-4.091,2.532-4.218,5.623c-5.991,1.397-8.617,8.002-14.76,8.08c3.787-9.215,13.917-12.086,20.031-18.974
		c-0.03-2.263,0.975-5.342,0-7.378c-2.584,1.398-5.719,2.246-8.082,3.865c1.849-2.834,6.327-3.042,8.434-5.62
		c-7.173-4.981-19.349-2.035-26.006,1.404c-0.251,0.954,1.658-0.25,1.407,0.704c-2.22,0.819-2.502-1.331-4.921-1.758
		c-0.054-0.412,0.061-0.997-0.351-1.054c1.926-6.038,12.825-3.106,17.219-6.675c-0.867,0.047-1.693,0.053-2.108-0.352
		c0.083-2.454,0.081-2.907,1.054-4.568c-4.222-2.103-6.112-6.538-10.191-8.785c0.739-0.718,2.911,0.754,3.514-0.702
		c-1.449-2.726-5.154-4.82-5.975-7.027c-2.919-1.415-6.587-2.079-8.785-4.218c5.264,1.143,13.313,4.153,16.517,7.379
		c1.956-0.506,4.156,0.426,4.92-1.757c-0.657,0.281-1.287,0.588-2.109,0.703c-0.456-0.871,0.785-1.707,0-1.758
		c-2.242,0.006-1.263-1.694-2.459-0.35c-0.787-2.163,3.13-2.429,4.568-3.515c-1.057-0.582-2.865-0.414-3.163-1.756
		c3.1,0.41,8.637,2.393,13.355,3.865c2.72,0.849,7.216,2.396,7.732-1.406c0.392-2.897-2.903-2.721-3.866-5.271
		c1.259-1.065,2.254,2.121,3.514,1.055c-0.574-4.346-4.096-7.546-7.38-10.19c-4.74-3.813-10.954-7.604-9.489-14.403
		c1.764-0.635,3.566-0.854,5.623-0.354c2.189,3.248,6.025,5.979,8.786,9.486c2.172,2.763,3.22,6.794,6.676,6.677
		c-0.75-1.24-1.881-2.102-2.108-3.865c3.22,0.439,3.483,6.805,7.029,8.082c0.958-3.121-3.28-3.941-3.163-7.379
		c3.438,1.131,3.085,6.053,6.326,7.379c1.67-2.428,3.979-4.219,5.271-7.027c-0.563-4.478-0.728-9.085-1.054-13.704
		c2.466,2.221,0.213,9.158,3.163,10.894c-0.163-3.091-0.274-6.13,2.812-5.976c2.105,0.592,1.601,3.789,2.109,5.976
		c1.708,1.139,3.188,1.275,5.272,1.406c0.895,1.857,1.437,4.936,3.513,4.566c0.21,2.195-0.296,2.922,1.056,3.865
		c3.218-0.295,4.21-2.818,5.622-4.92c4.866-2.162,7.455-6.599,10.895-10.187c0.917-3.068,2.075-5.891,4.921-7.028
		c-0.798,5.614-4.301,8.638-3.514,14.053c-0.719,0.805-2.332,0.717-3.164,1.406c-0.469,5.012-7.604,14.269-1.055,15.811
		c4.012,0.945,4.004-1.785,7.029-2.461c0.633,0.305,1.101,0.773,1.405,1.406c2.369-0.559,3.785-2.072,6.678-2.107
		C30.498-30.641,28.876-28.415,27.373-29.086z M-48.537-29.438c-0.711,1.064-0.646,2.874,0.704,4.216
		c2.165-1.907,5.061,0.809,7.029,0C-41.867-28.143-46.08-27.911-48.537-29.438z M-46.076-21.708c0.354,0.816,1.21,1.132,2.46,1.054
		C-44.25-21.19-44.692-21.92-46.076-21.708z M-41.508-17.843c0.044-0.776,1.492-0.149,2.109-0.351
		c-1.223-1.588-4.149-1.474-6.326-2.108c-0.389,0.663-0.448,1.66-0.703,2.458c1.683,1.294,5.842,4.375,8.084,1.757
		C-38.953-17.117-39.992-17.718-41.508-17.843z M-41.156-13.275c-1.228,1.466-2.267,3.121-4.569,3.514
		c-0.363,5.887,6.816,4.621,6.677-0.351c0.577-0.83,1.81-1.001,2.462-1.758C-37.02-13.428-40.459-11.981-41.156-13.275z
		 M-45.374-41.736c-2.078-0.85-3.984-1.871-5.271-3.514C-48.752-45.984-45.431-41.667-45.374-41.736z M-32.721-50.52
		c1.254,0.385,1.374,1.905,2.108,2.81C-31.868-48.095-31.987-49.616-32.721-50.52z"/>
</symbol>
<symbol  id="Grime_Vector_Pack_10" viewBox="-112.86 -86.4 225.72 172.8">
	<path fill-rule="evenodd" clip-rule="evenodd" d="M-94.855,25.809C-98.627,21.059-89.047,23.557-94.855,25.809L-94.855,25.809z
		 M-107.248-51.029c0.894-0.594,3.771-2.541,4.215-0.475C-103.652-50.771-106.987-49.056-107.248-51.029z M-89.199-53.316
		c3.92-1.256,7.853,2.178,7.15,7.318C-87.802-35.958-98.495-50.343-89.199-53.316z M-52.724,45.505
		c0.809,2.408-1.536,4.934-2.691,5.231C-54.207,49.151-54.409,46.843-52.724,45.505z M-37.643,27.133
		c-1.083,1.979-1.042,4.537-1.789,6.688c0.001,1.456,0.56,1.313,0.493,2.9c-2.325,0.837-1.45,6.306-3.611,5.087
		C-40.957,37.115-41.137,29.746-37.643,27.133z M18.635,29.629c-1.261-0.146-3.689-1.373-3.124-2.931
		C16.509,27.759,18.056,27.753,18.635,29.629z M13.298,2.073C13.581,3.542,13,4.566,12.205,5.481
		C12.274,4.192,11.838,2.646,13.298,2.073z M5.602-60.106c0.699,1.24-0.2,1.66-1.075,2.092C4.251-59.038,4.609-59.735,5.602-60.106z
		 M108.609,41.858c-2.858,1.467-4.902-1.408-6.944-2.581C90.873,33.08,78.238,30.75,67.903,23.889
		c-6.348-2.848-13.114-4.215-19.654-6.807c-3.739-1.48-7.127-3.901-10.859-5.257c-5.775-2.096-11.753-3.427-16.768-5.982
		C15.872,3.422,6.096-3.604,1.982,2.206c4.025,6.5,2.594,16.14,9.501,20.105c-2.054,0.338-1.666-1.143-3.819,0.35
		c-2.593-1.817-3.979-5.982-7.022-6.923c-1.319,1.75-5.265,2.144-6.101,4.14c5.339,4.78,10.998,13.176,11.721,21.579
		c-3.718-3.383-4.976-13.394-9.675-16.558c-0.751,0.606-1.023,1.459-2.519,1.682c-4.111-2.51-7.354-6.708-12.412-7.379
		c-0.538,0.987,0.342,1.489,0.762,2.376c-1.163,0.755-0.961-1.132-1.967-0.681c0.481,3.931-1.646,8.216-1.595,12.742
		c0.052,4.447,2.695,9.885-1.072,13.009c-4.007-2.98-0.34-9.3-1.146-14.482c-0.172-1.096-1.097-1.893-1.413-3.041
		c-0.804-2.933,0.181-7.351-2.792-8.715c-2.444,3.616-6.31,6.991-7.762,11.222c-0.527,1.538,0.067,4.236-2.026,4.58
		c1.38-5.795,1.84-12.065,4.019-17.449c-4.366-7.854-10.417-2.64-14.231,1.938c-1.467,1.763-3.224,2.952-3.992,3.9
		c-1.308,1.613-1.656,4.344-2.835,6.15c-2.052,3.149-4.644,5.515-5.353,7.83c-0.43,1.405,0.09,3.023-0.315,4.468
		c-0.519,1.858-2.585,3.79-3.752,6.008c-1.374,2.607-1.941,5.741-3.247,7.592c-1.046,1.486-2.956,2.106-4.119,3.503
		c-3.849,4.619-5.734,10.908-10.026,13.698c-1.513-0.063-2.441-1.259-2.854-3.454c1.619-4.429,5.846-7.496,7.507-12.015
		c0.509-1.387-0.021-3.229,0.712-4.596c1.148-2.146,3.401-2.605,5.179-4.282c2.149-2.023,2.905-5.419,4.832-8.099
		c1.021-1.421,2.727-2.12,3.723-3.377c5.734-7.236,8.113-17.196,13.429-23.523c-0.594-2.471,1.276-5.2-1.096-7.51
		c-1.453,1.017-3.92,1.509-4.247,3.107c-2.149-4.608-5.591-6.707-10.049-6.827c-3.664,2.788-8.882,7.79-13.643,7.866
		c-1.724-3.753,2.806-4.564,5.068-5.992c5.564-3.51,12.136-8.9,9.249-14.757c0.615-1.117,2.044-0.194,3.565-1.143
		c1.091-2.416-1.598-5.961-3.204-7.273c-5.475-4.475-17.149,0.845-18.339-6.792c7.47-8.111,15.742,5.582,25.263-0.232
		c1.794-3.148,3.167-8.588-2.128-9.363c-0.793-2.173,2.875-2.05,2.154-4.183c0.093-1.682-1.333-0.412-1.427-1.729
		c0.61-0.236,1.39-0.387,0.934-1.172c-0.758-5.68-6.965-12.799-1.67-14.754c2.383,2.441,2.522,9.242,7.689,6.273
		c0.977-4.75-3.512-7.523-4.728-12.028c-1.466-1.754-6.607-6.047-3.584-8.459c6.452,3.959,8.054,17.345,15.966,18.472
		c1.813-3.25,1.608-10.661,0.833-15.12c-0.647-3.738-6.552-13.849-2.29-18.048c4.234-4.172,9.826,3.16,10.573,7.095
		c1.208,6.348-6.651,12.254-5.221,19.146c0.362,1.743,1.669,5.134,3.077,6.876c1.36,1.682,6.883,5.805,10.052,6.826
		c3.771,1.213,6.549,2.037,10.65,0.519c5.974-6.064,12.736-10.463,15.602-18.104c1.028-2.742,0.376-7.141,4.56-7.578
		c2.181,2.418-0.009,5.227-1.785,6.69c-1.27,4.309-2.977,8.392-5.274,12.173c0.153,1.621,0.503,3.344,1.255,5.275
		c1.961,1.117,3.996,2.09,5.073,4.926c0.85,0.441,1.543-0.885,3.17-1.016c1.083,0.465,1.5,2.225,2.868,2.139
		c6.548-1.064,10.892-3.852,16.909-5.854c5.44-1.811,7.196-6.447,11.677-8.545c4.817-2.26,6.669-4.108,10.71-4.745
		c2.034,1.035,2.265,3.118,1.649,5.149c-5.89,3.285-7,8.535-13.53,9.578c-1.487,0.236-3.194-0.617-4.864-0.188
		c-5.202,1.33-9.653,6.273-15.228,8.371c-0.009,3.194-3.009,4.851-5.212,6.913c0.668,1.244,1.597,0.981,1.285,2.647
		c-0.472,0.969-2.279,1.252-2.265,2.473c0.934,0.543,0.691,3.372,2.474,2.265c0.869,1.359-1.668,1.485-0.157,2.233
		c4.343,2.451,9.738-4.631,13.439-1.685c-0.46,5.549-11.228,1.847-11.789,6.835c1.696,0.558,4.527-1.085,5.246,1.377
		c-2.932,1.394-5.75-1.024-8.811-0.235c-1.784,0.46-3.315,2.212-5.166,2.966c-0.72,0.292-4.931-0.096-4.499,2.315
		c0.729-0.114,1.619-1.749,2.376-0.764C3.4-8.422,1.72-8.073,1.693-6.876c2.261,2.68,5.699,3.07,9.034,3.659
		c11.761,7.576,24.77,12.725,37.947,17.541c0.398-0.124,0.369-0.47,0.666-0.649c-0.191-0.541-0.093-0.93,0.016-1.314
		c1.858-0.566-0.174,1.054,0.111,1.71c4.916,4.521,11.795,4.636,18.213,6.396c6.825,1.872,14.174,6.89,21.065,9.848
		c5.144,2.206,10.037,5.005,14.915,7.015C105.863,38.234,109.815,37.792,108.609,41.858z M-72.71,78.553
		c-1.896,2.333-2.099,5.536-4.039,7.847C-76.339,83.518-74.573,79.585-72.71,78.553z M-62.369,60.39
		c-0.953,0.942-0.438,2.64-2.011,3.264C-64.487,62.372-62.9,60.245-62.369,60.39z M-56.492-26.233
		c-2.106-0.203-6.404,0.459-6.831-0.867C-61.096-26.719-58.184-27.659-56.492-26.233z M-112.86-10.566
		c1.813-0.174,2.92,0.359,2.812,2.107C-111.861-8.286-112.843-8.942-112.86-10.566z M107.984-29.25
		c1.018-0.902,1.613-0.293,3.251-0.326c0.594,1.354,1.635,2.264,1.625,4.225C110.256-24.434,107.776-26.29,107.984-29.25z"/>
</symbol>
<g id="Layer_1">
	<g id="Background_xA0_Image_1_">
		<rect fill="#495159" width="90" height="60"/>
		<rect x="7" y="7" fill="#FFFFFF" width="76" height="46"/>
	</g>
	<line fill="none" x1="18.493" y1="13.823" x2="39.727" y2="33.765"/>
</g>
<g id="Layer_2">
	
		<rect x="-5.468" y="29.665" transform="matrix(0.856 0.5169 -0.5169 0.856 21.9856 -18.9422)" fill="#495159" width="100.935" height="0.67"/>
</g>
<g id="Layer_3" display="none">
	
		<use xlink:href="#Grime_Vector_Pack_09"  width="142.056" height="166.392" x="-71.028" y="-83.195" transform="matrix(0.2445 0 0 -0.2445 44.9999 37.8214)" display="inline" overflow="visible"/>
	
		<use xlink:href="#Grime_Vector_Pack_10"  width="225.72" height="172.8" x="-112.86" y="-86.4" transform="matrix(0.1127 0.1798 0.1798 -0.1127 63.1182 27.6829)" display="inline" overflow="visible"/>
	
		<use xlink:href="#Grime_Vector_Pack_10"  width="225.72" height="172.8" x="-112.86" y="-86.4" transform="matrix(0.0376 -0.164 -0.1911 -0.0438 22.7061 21.4592)" display="inline" overflow="visible"/>
</g>
</svg>
